<svg width="28" height="30" viewBox="0 0 28 30" fill="none" xmlns="http://www.w3.org/2000/svg">
<g id="Group">
<g id="Vector" opacity="0.4">
<path d="M22 7.39781C22 8.86096 21.5308 10.2912 20.6518 11.5078C19.7727 12.7244 18.5233 13.6726 17.0615 14.2325C15.5997 14.7924 13.9911 14.9389 12.4393 14.6535C10.8874 14.368 9.46197 13.6635 8.34315 12.6288C7.22433 11.5942 6.4624 10.2761 6.15372 8.84105C5.84504 7.40601 6.00347 5.91856 6.60897 4.56679C7.21447 3.21502 8.23985 2.05964 9.55544 1.24676C10.871 0.433874 12.4178 0 14 0C16.1217 0 18.1566 0.77941 19.6569 2.16677C21.1571 3.55413 22 5.43579 22 7.39781Z" fill="#212B36"/>
<path d="M22 7.39781C22 8.86096 21.5308 10.2912 20.6518 11.5078C19.7727 12.7244 18.5233 13.6726 17.0615 14.2325C15.5997 14.7924 13.9911 14.9389 12.4393 14.6535C10.8874 14.368 9.46197 13.6635 8.34315 12.6288C7.22433 11.5942 6.4624 10.2761 6.15372 8.84105C5.84504 7.40601 6.00347 5.91856 6.60897 4.56679C7.21447 3.21502 8.23985 2.05964 9.55544 1.24676C10.871 0.433874 12.4178 0 14 0C16.1217 0 18.1566 0.77941 19.6569 2.16677C21.1571 3.55413 22 5.43579 22 7.39781Z" fill="#637381"/>
<path d="M22 7.39781C22 8.86096 21.5308 10.2912 20.6518 11.5078C19.7727 12.7244 18.5233 13.6726 17.0615 14.2325C15.5997 14.7924 13.9911 14.9389 12.4393 14.6535C10.8874 14.368 9.46197 13.6635 8.34315 12.6288C7.22433 11.5942 6.4624 10.2761 6.15372 8.84105C5.84504 7.40601 6.00347 5.91856 6.60897 4.56679C7.21447 3.21502 8.23985 2.05964 9.55544 1.24676C10.871 0.433874 12.4178 0 14 0C16.1217 0 18.1566 0.77941 19.6569 2.16677C21.1571 3.55413 22 5.43579 22 7.39781Z" fill="#919EAB"/>
</g>
<g id="Vector_2">
<path d="M19.6 16.6451C18.9113 16.6451 18.2343 16.7988 17.5787 17.0099C16.4305 17.3797 15.2209 17.5697 14 17.5697C12.7791 17.5697 11.5695 17.3797 10.4213 17.0099C9.76572 16.7988 9.08872 16.6451 8.4 16.6451C6.17233 16.6455 4.03605 17.4641 2.46085 18.9207C0.885654 20.3773 0.000497081 22.3528 0 24.4128L0 26.8171C0 27.5528 0.31607 28.2584 0.87868 28.7787C1.44129 29.299 2.20435 29.5912 3 29.5912H25C25.7956 29.5912 26.5587 29.299 27.1213 28.7787C27.6839 28.2584 28 27.5528 28 26.8171V24.4128C27.9995 22.3528 27.1143 20.3773 25.5391 18.9207C23.964 17.4641 21.8277 16.6455 19.6 16.6451Z" fill="#212B36"/>
<path d="M19.6 16.6451C18.9113 16.6451 18.2343 16.7988 17.5787 17.0099C16.4305 17.3797 15.2209 17.5697 14 17.5697C12.7791 17.5697 11.5695 17.3797 10.4213 17.0099C9.76572 16.7988 9.08872 16.6451 8.4 16.6451C6.17233 16.6455 4.03605 17.4641 2.46085 18.9207C0.885654 20.3773 0.000497081 22.3528 0 24.4128L0 26.8171C0 27.5528 0.31607 28.2584 0.87868 28.7787C1.44129 29.299 2.20435 29.5912 3 29.5912H25C25.7956 29.5912 26.5587 29.299 27.1213 28.7787C27.6839 28.2584 28 27.5528 28 26.8171V24.4128C27.9995 22.3528 27.1143 20.3773 25.5391 18.9207C23.964 17.4641 21.8277 16.6455 19.6 16.6451Z" fill="#637381"/>
<path d="M19.6 16.6451C18.9113 16.6451 18.2343 16.7988 17.5787 17.0099C16.4305 17.3797 15.2209 17.5697 14 17.5697C12.7791 17.5697 11.5695 17.3797 10.4213 17.0099C9.76572 16.7988 9.08872 16.6451 8.4 16.6451C6.17233 16.6455 4.03605 17.4641 2.46085 18.9207C0.885654 20.3773 0.000497081 22.3528 0 24.4128L0 26.8171C0 27.5528 0.31607 28.2584 0.87868 28.7787C1.44129 29.299 2.20435 29.5912 3 29.5912H25C25.7956 29.5912 26.5587 29.299 27.1213 28.7787C27.6839 28.2584 28 27.5528 28 26.8171V24.4128C27.9995 22.3528 27.1143 20.3773 25.5391 18.9207C23.964 17.4641 21.8277 16.6455 19.6 16.6451Z" fill="#919EAB"/>
</g>
</g>
</svg>
